# xmcd
#
# Track frame offsets: 
#        150
#        26088
#        50103
#        76453
#        101248
#        120119
#        137363
#        173513
#        193693
#        228679
#        252954
#        292559
#
# Disc length: 4342 seconds
#
# Revision: 1
# Processed by: cddbd v1.5.2PL0 Copyright (c) Steve Scherf et al.
# Submitted via: ExactAudioCopy v0.95a4
#
DISCID=9a10f40c
DTITLE=Gianni Basso and Renato Sellani - Isn't Romantic?
DYEAR=2002
DGENRE=Jazz
TTITLE0=Nancy with the laighlin face
TTITLE1=Embraceable you
TTITLE2=I'm getting sentimental over you
TTITLE3=Deep purple
TTITLE4=Everything I have is yours
TTITLE5=Isn't romantic ?
TTITLE6=Body and soul
TTITLE7=I should care
TTITLE8=I'll remeber April
TTITLE9=Over the rainbow
TTITLE10=It might as well be spring
TTITLE11=I remember Clifford
EXTD=
EXTT0=
EXTT1=
EXTT2=
EXTT3=
EXTT4=
EXTT5=
EXTT6=
EXTT7=
EXTT8=
EXTT9=
EXTT10=
EXTT11=
PLAYORDER=
